<svg xmlns="http://www.w3.org/2000/svg" width="43.15" height="42.523" viewBox="0 0 43.15 42.523"><defs><style>.a{fill:#191718;}</style></defs><g transform="translate(-7672.874 -4821.062)"><path class="a" d="M7691.494,4828.768a.505.505,0,0,0,.709.1l4.058-3.028a.507.507,0,0,0-.6-.813l-4.06,3.03A.5.5,0,0,0,7691.494,4828.768Z" transform="translate(7.786 1.627)"/><path class="a" d="M7689.5,4827.559a.5.5,0,0,0,.223.052.5.5,0,0,0,.454-.282l2.242-4.542a.506.506,0,1,0-.908-.448l-2.241,4.541A.507.507,0,0,0,7689.5,4827.559Z" transform="translate(6.872 0.417)"/><path class="a" d="M7686.984,4827.139h.006a.507.507,0,0,0,.5-.513l-.064-5.063a.506.506,0,0,0-1.013.012l.064,5.064A.507.507,0,0,0,7686.984,4827.139Z" transform="translate(5.692 0)"/><path class="a" d="M7684.47,4827.392a.507.507,0,0,0,.9-.472l-2.357-4.483a.506.506,0,0,0-.9.472Z" transform="translate(3.861 0.465)"/><path class="a" d="M7678.891,4826.048l4.135,2.925a.506.506,0,1,0,.584-.827l-4.135-2.925a.506.506,0,0,0-.584.827Z" transform="translate(2.439 1.71)"/><path class="a" d="M7686.862,4832.278h-9.312a.507.507,0,1,0,0,1.014h9.313a.507.507,0,1,0,0-1.014Z" transform="translate(1.752 4.716)"/><path class="a" d="M7686.862,4835.325h-9.312a.506.506,0,1,0,0,1.013h9.313a.506.506,0,1,0,0-1.013Z" transform="translate(1.752 5.997)"/><path class="a" d="M7686.862,4838.371h-9.312a.506.506,0,1,0,0,1.013h9.313a.506.506,0,1,0,0-1.013Z" transform="translate(1.752 7.277)"/><path class="a" d="M7686.862,4841.417h-9.312a.506.506,0,1,0,0,1.013h9.313a.506.506,0,1,0,0-1.013Z" transform="translate(1.752 8.558)"/><path class="a" d="M7698.9,4832.278h-9.314a.507.507,0,0,0,0,1.014h9.314a.507.507,0,0,0,0-1.014Z" transform="translate(6.815 4.716)"/><path class="a" d="M7694.554,4854.22a3.555,3.555,0,0,1-1.788-.479l-.255-.152-.255.152a3.547,3.547,0,0,1-1.785.479h-13.025a3.563,3.563,0,0,1-3.559-3.559v-17.414a3.551,3.551,0,0,1,1.071-2.542,2.567,2.567,0,0,0-.06.543v19.779a2.55,2.55,0,0,0,2.547,2.547h13.025a2.54,2.54,0,0,1,4.083,0h10.9l-.314-1.013h-10.59a1.537,1.537,0,0,1-1.536-1.525v-19.792a1.535,1.535,0,0,1,1.536-1.525h13.023a1.535,1.535,0,0,1,1.534,1.532v18.327l1.013.343v-18.67a2.515,2.515,0,0,0-.061-.546,3.55,3.55,0,0,1,1.073,2.545v17.02l1.013.344v-17.364a4.58,4.58,0,0,0-4.572-4.574h-13.023a4.553,4.553,0,0,1-4.083,0h-13.025a4.578,4.578,0,0,0-4.571,4.574v17.414a4.578,4.578,0,0,0,4.571,4.572h13.025a4.594,4.594,0,0,1,4.083,0h11.417l-.313-1.013Zm-4.083-1.659h-13.025a1.537,1.537,0,0,1-1.534-1.534v-19.779a1.537,1.537,0,0,1,1.534-1.534h13.025a1.535,1.535,0,0,1,1.532,1.527v19.792A1.535,1.535,0,0,1,7690.471,4852.561Z" transform="translate(0 3.2)"/><path class="a" d="M7698.9,4835.325h-9.314a.506.506,0,0,0,0,1.013h9.314a.506.506,0,0,0,0-1.013Z" transform="translate(6.815 5.997)"/><path class="a" d="M7698.9,4838.371h-9.314a.506.506,0,0,0,0,1.013h9.314a.506.506,0,0,0,0-1.013Z" transform="translate(6.815 7.277)"/><path class="a" d="M7698.9,4841.417h-9.314a.506.506,0,0,0,0,1.013h9.314a.506.506,0,0,0,0-1.013Z" transform="translate(6.815 8.558)"/><path class="a" d="M7706.385,4851.537l-2.7-2.78,1.779-1.728a.508.508,0,0,0-.19-.844l-2.67-.911-.979-.335-1-.344-1.013-.345-3.488-1.192a.559.559,0,0,0-.162-.027.509.509,0,0,0-.486.656l.874,2.836.315,1.013.2.648.313,1.013,1.15,3.731a.5.5,0,0,0,.357.34.546.546,0,0,0,.125.018.512.512,0,0,0,.355-.145l1.779-1.726,2.7,2.778a.511.511,0,0,0,.357.155h.007a.5.5,0,0,0,.355-.145l2.009-1.952a.5.5,0,0,0,.154-.354A.511.511,0,0,0,7706.385,4851.537Zm-2.364,1.589-2.7-2.781a.517.517,0,0,0-.357-.157h-.007a.51.51,0,0,0-.352.145l-1.552,1.506-.817-2.646-.312-1.01-.2-.648-.314-1.013-.672-2.184,2.84.973.962.327.851.291.959.327,1.816.622-1.553,1.506a.5.5,0,0,0-.151.354.492.492,0,0,0,.141.361l2.7,2.783Z" transform="translate(9.495 9.237)"/></g></svg>