<svg width="60" height="60" viewBox="0 0 60 60" fill="none" xmlns="http://www.w3.org/2000/svg">
<rect x="38.6416" y="38.6416" width="7.36347" height="7.36347" stroke="black" stroke-width="1.83088"/>
<rect x="1.82422" y="38.6416" width="7.36347" height="7.36347" stroke="black" stroke-width="1.83088"/>
<rect x="38.6416" y="1.82422" width="7.36347" height="7.36347" stroke="black" stroke-width="1.83088"/>
<rect x="1.82422" y="1.82422" width="7.36347" height="7.36347" stroke="black" stroke-width="1.83088"/>
<path d="M9.1876 9.18761V5.50588L38.6415 5.50586V9.1876L42.3232 9.18761V38.6415H38.6415V42.3232H9.1876V38.6415H5.50586V9.18761H9.1876Z" stroke="black" stroke-width="1.83088"/>
<path d="M12.8721 29.4367L17.9699 22.0732L23.0677 29.4367H12.8721Z" fill="#419EC7"/>
<path d="M19.667 29.4368L27.3137 18.3916L34.9605 29.4368H19.667Z" fill="#419EC7"/>
<path d="M58.524 51.5536L49.2255 48.4541C48.7484 48.2951 48.2945 48.749 48.4536 49.2261L51.553 58.5246C51.7179 59.0192 52.3871 59.0927 52.6553 58.6456L54.823 55.0329C54.8745 54.947 54.9464 54.8751 55.0323 54.8235L58.645 52.6559C59.0921 52.3877 59.0186 51.7185 58.524 51.5536Z" fill="#419EC7"/>
</svg>
