<?xml version="1.0" encoding="utf-8"?>
<!-- Generator: Adobe Illustrator 25.3.1, SVG Export Plug-In . SVG Version: 6.00 Build 0)  -->
<svg version="1.1" id="Layer_1" xmlns="http://www.w3.org/2000/svg" xmlns:xlink="http://www.w3.org/1999/xlink" x="0px" y="0px"
	 viewBox="0 0 63.8 63.8" style="enable-background:new 0 0 63.8 63.8;" xml:space="preserve">
<style type="text/css">
	.st0{fill:#00629B;}
</style>
<g id="Group_372" transform="translate(-895.22 -3809.833)">
	<g id="Group_223" transform="translate(-3762.879 2751.274)">
		<path id="Path_268" d="M4680.6,1097.8h-4.4c-0.5,0-0.9-0.4-0.9-0.9v-7.6c0-0.5,0.4-0.9,0.9-0.9h4.4c0.2,0,0.4,0.2,0.4,0.4v8.4
			C4681.1,1097.6,4680.9,1097.8,4680.6,1097.8z M4676.2,1096.9h3.9v-7.6h-3.9V1096.9z"/>
		<path id="Path_269" d="M4681.9,1099c-0.9,0-1.7-0.8-1.7-1.7v-8.4c0-0.9,0.8-1.7,1.7-1.7c0.9,0,1.7,0.8,1.7,1.7v8.4
			C4683.5,1098.3,4682.8,1099,4681.9,1099z M4681.9,1088.1c-0.4,0-0.8,0.4-0.8,0.8v8.4c0,0.4,0.4,0.8,0.8,0.8s0.8-0.4,0.8-0.8v-8.4
			C4682.6,1088.5,4682.3,1088.1,4681.9,1088.1L4681.9,1088.1z"/>
		<path id="Path_270" d="M4703.8,1097.8h-4.4c-0.2,0-0.4-0.2-0.4-0.4v-8.4c0-0.2,0.2-0.4,0.4-0.4h4.4c0.5,0,0.9,0.4,0.9,0.9v7.6
			C4704.7,1097.4,4704.3,1097.8,4703.8,1097.8z M4699.9,1096.9h3.9v-7.6h-3.9V1096.9z"/>
		<path id="Path_271" d="M4698.2,1099c-0.9,0-1.7-0.8-1.7-1.7v-8.4c0-0.9,0.8-1.7,1.7-1.7c0.9,0,1.7,0.8,1.7,1.7v8.4
			C4699.9,1098.3,4699.1,1099,4698.2,1099z M4698.2,1088.1c-0.4,0-0.8,0.4-0.8,0.8v8.4c0,0.4,0.4,0.8,0.8,0.8s0.8-0.4,0.8-0.8v-8.4
			C4699,1088.5,4698.6,1088.1,4698.2,1088.1L4698.2,1088.1z"/>
		<path id="Path_272" d="M4701.7,1088c-0.2,0-0.4-0.2-0.4-0.4c0.1-6.1-4.9-11.1-11-11.2s-11.1,4.9-11.2,11c0,0.1,0,0.1,0,0.2
			c0,0.2-0.2,0.4-0.5,0.4c-0.2,0-0.4-0.2-0.4-0.4c0-6.6,5.3-11.9,11.9-11.9c6.6,0,11.9,5.3,11.9,11.9
			C4702.1,1087.8,4701.9,1088,4701.7,1088C4701.7,1088,4701.7,1088,4701.7,1088z"/>
		<path id="Path_273" d="M4696.8,1103.9h-3.1c-0.2,0-0.4-0.2-0.4-0.4s0.2-0.4,0.4-0.4h3.1c2.4,0,4.4-2,4.4-4.4
			c0-0.2,0.2-0.4,0.4-0.4s0.4,0.2,0.4,0.4l0,0C4702.1,1101.6,4699.8,1103.9,4696.8,1103.9z"/>
		<path id="Path_274" d="M4692.3,1105.4h-2.2c-1,0-1.8-0.9-1.8-1.9c0-1,0.8-1.8,1.8-1.8h2.2c1,0,1.8,0.9,1.8,1.9
			C4694.1,1104.5,4693.3,1105.3,4692.3,1105.4z M4690.2,1102.5c-0.5,0-1,0.4-1,1c0,0.5,0.4,1,1,1h2.2c0.5,0,1-0.4,1-1
			c0-0.5-0.4-1-1-1H4690.2z"/>
	</g>
	<path id="Path_293" class="st0" d="M929.4,3873.1c-17.3,1.2-32.3-11.8-33.5-29.1c-0.6-8.3,2.2-16.5,7.6-22.8
		c11.4-13.1,31.2-14.5,44.3-3.1c6.3,5.5,10.1,13.2,10.7,21.5c0.2,2.5,0.1,5-0.4,7.4c-0.1,0.5-0.6,0.9-1.2,0.8s-0.9-0.6-0.8-1.2
		c0.4-2.3,0.5-4.6,0.3-6.9c-1.1-16.2-15.2-28.4-31.4-27.3c-7.8,0.5-15,4.2-20.1,10c-10.6,12.3-9.3,30.8,3,41.5
		c8.2,7.1,19.5,9.1,29.6,5.3c0.5-0.2,1.1,0.1,1.3,0.6c0.2,0.5-0.1,1.1-0.6,1.3l0,0C935.4,3872.2,932.4,3872.9,929.4,3873.1z"/>
</g>
</svg>
