<?xml version="1.0" encoding="utf-8"?>
<!-- Generator: Adobe Illustrator 25.3.1, SVG Export Plug-In . SVG Version: 6.00 Build 0)  -->
<svg version="1.1" id="Layer_1" xmlns="http://www.w3.org/2000/svg" xmlns:xlink="http://www.w3.org/1999/xlink" x="0px" y="0px"
	 viewBox="0 0 63.8 63.8" style="enable-background:new 0 0 63.8 63.8;" xml:space="preserve">
<style type="text/css">
	.st0{fill:#FA067E;}
</style>
<g id="Group_366" transform="translate(-73.204 -3445.286)">
	<g id="Group_170" transform="translate(95.56 3469.313)">
		<path id="Path_206" d="M5-2.2c-0.3,0-0.5-0.2-0.5-0.5S4.8-3.2,5-3.2c0.3,0,0.5,0.2,0.5,0.5c0,0,0,0,0,0C5.6-2.4,5.3-2.2,5-2.2z
			 M5-2.9c-0.1,0-0.2,0.1-0.2,0.2c0,0.1,0.1,0.2,0.2,0.2c0.1,0,0.2-0.1,0.2-0.2C5.3-2.8,5.2-2.9,5-2.9L5-2.9z"/>
		<path id="Path_207" d="M21.8-2c-0.3,0-0.5-0.2-0.5-0.5S21.5-3,21.8-3c0.3,0,0.5,0.2,0.5,0.5C22.4-2.2,22.1-2,21.8-2z M21.8-2.8
			c-0.1,0-0.2,0.1-0.2,0.2s0.1,0.2,0.2,0.2c0.1,0,0.2-0.1,0.2-0.2C22.1-2.6,22-2.8,21.8-2.8L21.8-2.8z"/>
		<path id="Path_208" d="M23.4,20.6H-4.9c-0.2,0-0.4-0.2-0.4-0.4s0.2-0.4,0.4-0.4h28.3c0.2,0,0.4,0.2,0.4,0.4S23.6,20.6,23.4,20.6
			L23.4,20.6z"/>
		<path id="Path_209" d="M-1.4,18h-3.9V7.3h3.9V18z M-4.5,17.2h2.3V8h-2.3V17.2z"/>
		<path id="Path_210" d="M23.8,18h-3.9V2.1h3.9V18z M20.7,17.2H23V2.9h-2.3V17.2z"/>
		<path id="Path_211" d="M7,18H3.1V1.9H7V18z M3.9,17.2h2.3V2.7H3.9V17.2z"/>
		<path id="Path_212" d="M5-0.1c-1.4,0-2.6-1.2-2.6-2.6S3.6-5.3,5-5.3c1.4,0,2.6,1.2,2.6,2.6C7.6-1.3,6.5-0.1,5-0.1z M5-4.5
			c-1,0-1.8,0.8-1.8,1.8S4-0.9,5-0.9c1,0,1.8-0.8,1.8-1.8C6.9-3.7,6-4.5,5-4.5L5-4.5z"/>
		<path id="Path_213" d="M21.8,0.1c-1.4,0-2.6-1.2-2.6-2.6s1.2-2.6,2.6-2.6c1.4,0,2.6,1.2,2.6,2.6c0,0,0,0,0,0
			C24.4-1.1,23.3,0.1,21.8,0.1z M21.8-4.3c-1,0-1.8,0.8-1.8,1.8c0,1,0.8,1.8,1.8,1.8c1,0,1.8-0.8,1.8-1.8
			C23.6-3.5,22.8-4.3,21.8-4.3L21.8-4.3z"/>
		<path id="Path_214" d="M15.4,18h-3.9V6.7h3.9V18z M12.3,17.2h2.3V7.5h-2.3V17.2z"/>
		<path id="Path_215" d="M13.4,3.8c-0.9,0-1.7-0.8-1.7-1.7c0-0.9,0.8-1.7,1.7-1.7c0.9,0,1.7,0.8,1.7,1.7c0,0,0,0,0,0
			C15.2,3,14.4,3.8,13.4,3.8z M13.4,1.1c-0.5,0-0.9,0.4-0.9,0.9S12.9,3,13.4,3c0.5,0,0.9-0.4,0.9-0.9c0,0,0,0,0,0
			C14.4,1.6,14,1.1,13.4,1.1z"/>
		<path id="Path_216" d="M-3.3,4.4c-0.9,0-1.7-0.8-1.7-1.7s0.8-1.7,1.7-1.7s1.7,0.8,1.7,1.7C-1.6,3.6-2.4,4.4-3.3,4.4z M-3.3,1.7
			c-0.5,0-0.9,0.4-0.9,0.9c0,0.5,0.4,0.9,0.9,0.9c0.5,0,0.9-0.4,0.9-0.9C-2.4,2.1-2.8,1.7-3.3,1.7L-3.3,1.7z"/>
		
			<rect id="Rectangle_16" x="-2.8" y="-0.3" transform="matrix(0.8547 -0.5191 0.5191 0.8547 8.777819e-03 0.22)" width="6.4" height="0.8"/>
		
			<rect id="Rectangle_17" x="9.2" y="-3.2" transform="matrix(0.5319 -0.8468 0.8468 0.5319 4.7138 8.0013)" width="0.8" height="6"/>
		
			<rect id="Rectangle_18" x="14.2" y="-0.4" transform="matrix(0.8674 -0.4976 0.4976 0.8674 2.3131 8.5633)" width="6" height="0.8"/>
	</g>
	<path id="Path_287" class="st0" d="M135.8,3483.7c-3.6,16.9-20.3,27.8-37.2,24.2c-8.1-1.7-15.3-6.6-19.8-13.6
		c-9.4-14.5-5.3-34,9.2-43.4c7-4.5,15.5-6.1,23.6-4.4c2.4,0.5,4.8,1.3,7,2.4c0.5,0.2,0.7,0.8,0.5,1.3c-0.2,0.5-0.8,0.7-1.3,0.5
		c-2.1-1-4.3-1.7-6.6-2.2c-15.9-3.4-31.5,6.7-34.8,22.6c-1.6,7.6-0.1,15.6,4.1,22.1c8.9,13.6,27.1,17.4,40.7,8.6
		c9-5.9,14.1-16.3,13.3-27c0-0.6,0.4-1,0.9-1.1c0.6,0,1,0.4,1.1,0.9l0,0C136.6,3477.7,136.4,3480.7,135.8,3483.7z"/>
</g>
</svg>
