<?xml version="1.0" encoding="utf-8"?>
<!-- Generator: Adobe Illustrator 25.3.1, SVG Export Plug-In . SVG Version: 6.00 Build 0)  -->
<svg version="1.1" id="Layer_1" xmlns="http://www.w3.org/2000/svg" xmlns:xlink="http://www.w3.org/1999/xlink" x="0px" y="0px"
	 viewBox="0 0 63.8 63.8" style="enable-background:new 0 0 63.8 63.8;" xml:space="preserve">
<style type="text/css">
	.st0{fill:#C75308;}
</style>
<g id="Group_367" transform="translate(-473.539 -3438.127)">
	<g id="_10" transform="translate(-3259.145 2416.073)">
		<g id="Group_172" transform="translate(3775.982 1070.656)">
			<g id="Group_171" transform="translate(0 0)">
				<circle id="Ellipse_18" cx="-11.4" cy="-11.4" r="0.8"/>
			</g>
		</g>
		<g id="Group_174" transform="translate(3762.114 1053.113)">
			<g id="Group_173" transform="translate(0 0)">
				<path id="Path_217" d="M15.2,9.3h-25.5c-1.2,0-2.2-1-2.2-2.2v-17.3c0-1.2,1-2.2,2.2-2.2h25.5c1.2,0,2.2,1,2.2,2.2V7.1
					C17.4,8.3,16.4,9.3,15.2,9.3z M-10.2-11.5c-0.7,0-1.3,0.6-1.3,1.3V7.1c0,0.7,0.6,1.3,1.3,1.3h25.5c0.7,0,1.3-0.6,1.3-1.3v-17.3
					c0-0.7-0.6-1.3-1.3-1.3H-10.2z"/>
			</g>
		</g>
		<g id="Group_176" transform="translate(3772.907 1073.999)">
			<g id="Group_175" transform="translate(0 0)">
				<path id="Path_218" d="M-4.6-7.3H-12c-0.2,0-0.4-0.2-0.4-0.4c0,0,0-0.1,0-0.1l0.8-4.3c0-0.2,0.2-0.4,0.4-0.4h5.9
					c0.2,0,0.4,0.1,0.4,0.4l0.8,4.3c0,0,0,0.1,0,0.1C-4.2-7.5-4.3-7.3-4.6-7.3L-4.6-7.3z M-11.5-8.2h6.4l-0.6-3.4h-5.1L-11.5-8.2z"
					/>
			</g>
		</g>
		<g id="Group_178" transform="translate(3771.634 1078.284)">
			<g id="Group_177" transform="translate(0 0)">
				<path id="Path_219" d="M-2-11.6h-10c-0.2,0-0.4-0.2-0.5-0.4c0-0.2,0.2-0.4,0.4-0.5c0,0,0,0,0,0h10c0.2,0,0.4,0.2,0.5,0.4
					C-1.6-11.8-1.8-11.6-2-11.6C-2-11.6-2-11.6-2-11.6z"/>
			</g>
		</g>
		<g id="Group_180" transform="translate(3762.145 1068.846)">
			<g id="Group_179" transform="translate(0 0)">
				<path id="Path_220" d="M16.9-11.6h-29c-0.2,0-0.4-0.2-0.5-0.4c0-0.2,0.2-0.4,0.4-0.5c0,0,0,0,0,0h29c0.2,0,0.4,0.2,0.4,0.5
					C17.3-11.8,17.2-11.6,16.9-11.6z"/>
			</g>
		</g>
		<g id="Group_184" transform="translate(3766.2 1063.948)">
			<g id="Group_183" transform="translate(0 0)">
				<path id="Path_222" d="M-6.7-9H-12c-0.2,0-0.4-0.2-0.4-0.4V-12c0-0.2,0.2-0.4,0.4-0.4c0,0,0,0,0,0h5.4c0.2,0,0.4,0.2,0.4,0.4
					v2.5C-6.2-9.2-6.4-9-6.7-9z M-11.6-9.9h4.5v-1.7h-4.5V-9.9z"/>
			</g>
		</g>
		<g id="Group_186" transform="translate(3773.947 1063.948)">
			<g id="Group_185" transform="translate(0 0)">
				<path id="Path_223" d="M-6.7-9H-12c-0.2,0-0.4-0.2-0.4-0.4V-12c0-0.2,0.2-0.4,0.4-0.4c0,0,0,0,0,0h5.4c0.2,0,0.4,0.2,0.4,0.4
					v2.5C-6.2-9.2-6.4-9-6.7-9z M-11.6-9.9h4.5v-1.7h-4.5V-9.9z"/>
			</g>
		</g>
		<g id="Group_188" transform="translate(3781.693 1063.948)">
			<g id="Group_187" transform="translate(0 0)">
				<path id="Path_224" d="M-6.7-9H-12c-0.2,0-0.4-0.2-0.4-0.4V-12c0-0.2,0.2-0.4,0.4-0.4h5.4c0.2,0,0.4,0.2,0.4,0.4c0,0,0,0,0,0
					v2.5C-6.2-9.2-6.4-9-6.7-9z M-11.6-9.9h4.5v-1.7h-4.5V-9.9z"/>
			</g>
		</g>
		<g id="Group_190" transform="translate(3766.2 1056.47)">
			<g id="Group_189" transform="translate(0)">
				<path id="Path_225" d="M-5.8-11.6H-12c-0.2,0-0.4-0.2-0.5-0.4c0-0.2,0.2-0.4,0.4-0.5c0,0,0,0,0,0h6.2c0.2,0,0.4,0.2,0.4,0.5
					C-5.4-11.8-5.6-11.6-5.8-11.6z"/>
			</g>
		</g>
		<g id="Group_192" transform="translate(3785.442 1056.491)">
			<g id="Group_191" transform="translate(0 0)">
				<path id="Path_226" d="M-10.5-11.6H-12c-0.2,0-0.4-0.2-0.5-0.4c0-0.2,0.2-0.4,0.4-0.5c0,0,0,0,0,0h1.5c0.2,0,0.4,0.2,0.5,0.4
					C-10.1-11.8-10.3-11.6-10.5-11.6C-10.5-11.6-10.5-11.6-10.5-11.6z"/>
			</g>
		</g>
		<g id="Group_194" transform="translate(3782.13 1056.491)">
			<g id="Group_193" transform="translate(0 0)">
				<path id="Path_227" d="M-10.5-11.6H-12c-0.2,0-0.4-0.2-0.5-0.4c0-0.2,0.2-0.4,0.4-0.5c0,0,0,0,0,0h1.5c0.2,0,0.4,0.2,0.5,0.4
					C-10.1-11.8-10.3-11.6-10.5-11.6C-10.5-11.6-10.5-11.6-10.5-11.6z"/>
			</g>
		</g>
		<g id="Group_196" transform="translate(3778.818 1056.491)">
			<g id="Group_195" transform="translate(0 0)">
				<path id="Path_228" d="M-10.5-11.6H-12c-0.2,0-0.4-0.2-0.5-0.4c0-0.2,0.2-0.4,0.4-0.5c0,0,0,0,0,0h1.5c0.2,0,0.4,0.2,0.4,0.5
					C-10.1-11.8-10.3-11.6-10.5-11.6z"/>
			</g>
		</g>
		<g id="Group_198" transform="translate(3775.506 1056.491)">
			<g id="Group_197" transform="translate(0 0)">
				<path id="Path_229" d="M-10.5-11.6H-12c-0.2,0-0.4-0.2-0.5-0.4c0-0.2,0.2-0.4,0.4-0.5c0,0,0,0,0,0h1.5c0.2,0,0.4,0.2,0.5,0.4
					C-10.1-11.8-10.3-11.6-10.5-11.6C-10.5-11.6-10.5-11.6-10.5-11.6z"/>
			</g>
		</g>
	</g>
	<path id="Path_288" class="st0" d="M527.6,3447.9c12.3,12.3,12.3,32.1,0,44.4c-5.9,5.9-13.9,9.2-22.2,9.2
		c-17.3,0-31.4-14-31.4-31.4c0-8.3,3.3-16.3,9.2-22.2c1.8-1.8,3.7-3.3,5.8-4.6c0.5-0.3,1.1-0.1,1.4,0.3c0.3,0.5,0.1,1.1-0.3,1.4
		c-2,1.2-3.8,2.7-5.4,4.3c-11.5,11.5-11.5,30.1,0,41.5c5.5,5.5,13,8.6,20.8,8.6c16.2,0,29.4-13.2,29.3-29.4
		c0-10.8-5.9-20.7-15.4-25.8c-0.5-0.3-0.7-0.9-0.4-1.4c0.3-0.5,0.9-0.7,1.4-0.4l0,0C523,3443.9,525.5,3445.7,527.6,3447.9z"/>
</g>
</svg>
