<svg width="84" height="81" viewBox="0 0 84 81" fill="none" xmlns="http://www.w3.org/2000/svg">
<g clip-path="url(#clip0_2090_10418)">
<path d="M30.0273 39.0459L40.2925 49.3198H81.9136L71.9287 39.0459H30.0273ZM30.0273 39.0459C30.0273 52.6101 30.0273 66.1744 30.0273 79.7386H71.9287C71.9287 69.8508 71.9287 59.9462 71.9287 50.0584" stroke="black" stroke-width="3.02284" stroke-linecap="round" stroke-linejoin="round"/>
<path d="M20.428 48.5818H1.92969L12.2824 38.8115H30.0274L20.428 48.5818Z" stroke="black" stroke-width="3.02284" stroke-linecap="round" stroke-linejoin="round"/>
<path d="M11.8271 49.1016C11.8271 59.3083 11.8271 69.5318 11.8271 79.7386H29.6247C29.6247 69.8508 29.6247 59.9462 29.6247 50.0584V39.0459H11.8271" stroke="black" stroke-width="3.02284" stroke-linecap="round" stroke-linejoin="round"/>
<path d="M73.8897 26.1375H49.7684L42.0082 32.7182L34.5984 26.1375H10.1092C5.27446 26.1375 1.35059 22.3771 1.35059 17.7438V9.93765C1.35059 5.30433 5.27446 1.54395 10.1092 1.54395H73.8897C78.7245 1.54395 82.6484 5.30433 82.6484 9.93765V17.7438C82.6484 22.3771 78.7245 26.1375 73.8897 26.1375Z" stroke="black" stroke-width="3.02284" stroke-linecap="round" stroke-linejoin="round"/>
<path d="M11.8604 18.5802C12.0881 18.4459 11.475 18.916 13.7873 17.1365C13.9099 17.2372 15.7492 18.6306 15.6091 18.5299C16.4674 19.151 17.6937 18.597 17.6937 17.5226C17.6937 17.1701 17.6586 17.1701 16.8353 14.803L18.5345 13.5104C19.4979 12.7718 18.9549 11.2777 17.7112 11.2777H15.6091L15.031 9.63253C14.6281 8.49098 12.9465 8.49098 12.5436 9.63253L11.9655 11.2777H9.86343C8.63722 11.2777 8.07666 12.7718 9.04011 13.5104L10.7393 14.803L9.9335 17.1365C9.56563 18.1941 10.8269 19.2013 11.8604 18.5802Z" fill="#017EB4"/>
<path d="M25.875 18.5802C26.1028 18.4459 25.4897 18.916 27.802 17.1365C27.9246 17.2372 29.7639 18.6306 29.6237 18.5299C30.4821 19.151 31.7083 18.597 31.7083 17.5226C31.7083 17.1701 31.6733 17.1701 30.85 14.803L32.5491 13.5104C33.5126 12.7718 32.9696 11.2777 31.7258 11.2777H29.6237L29.0457 9.63253C28.6428 8.49098 26.9611 8.49098 26.5582 9.63253L25.9802 11.2777H23.8781C22.6519 11.2777 22.0913 12.7718 23.0548 13.5104L24.7539 14.803L23.9481 17.1365C23.5803 18.1941 24.8415 19.2013 25.875 18.5802Z" fill="#017EB4"/>
<path d="M39.8877 18.5802C40.1155 18.4459 39.5024 18.916 41.8146 17.1365C41.9373 17.2372 43.7766 18.6306 43.6364 18.5299C44.4948 19.151 45.721 18.597 45.721 17.5226C45.721 17.1701 45.686 17.1701 44.8627 14.803L46.5618 13.5104C47.5253 12.7718 46.9823 11.2777 45.7385 11.2777H43.6364L43.0584 9.63253C42.6555 8.49098 40.9738 8.49098 40.5709 9.63253L39.9928 11.2777H37.8908C36.6646 11.2777 36.104 12.7718 37.0675 13.5104L38.7666 14.803L37.9608 17.1365C37.593 18.1941 38.8542 19.2013 39.8877 18.5802Z" fill="#017EB4"/>
<path d="M53.9034 18.5802C54.1311 18.4459 53.518 18.916 55.8303 17.1365C55.9529 17.2372 57.7922 18.6306 57.6521 18.5299C58.5104 19.151 59.7366 18.597 59.7366 17.5226C59.7366 17.1701 59.7016 17.1701 58.8783 14.803L60.5775 13.5104C61.5409 12.7718 60.9979 11.2777 59.7541 11.2777H57.6521L57.074 9.63253C56.6711 8.49098 54.9894 8.49098 54.5865 9.63253L54.0085 11.2777H51.9064C50.6802 11.2777 50.1196 12.7718 51.0831 13.5104L52.7823 14.803L51.9765 17.1365C51.6086 18.1941 52.8698 19.2013 53.9034 18.5802Z" fill="#017EB4"/>
<path d="M67.917 18.5802C68.1448 18.4459 67.5317 18.916 69.8439 17.1365C69.9666 17.2372 71.8059 18.6306 71.6657 18.5299C72.5241 19.151 73.7503 18.597 73.7503 17.5226C73.7503 17.1701 73.7153 17.1701 72.892 14.803L74.5911 13.5104C75.5546 12.7718 75.0115 11.2777 73.7678 11.2777H71.6657L71.0877 9.63253C70.6848 8.49098 69.0031 8.49098 68.6002 9.63253L68.0221 11.2777H65.9201C64.6939 11.2777 64.1333 12.7718 65.0968 13.5104L66.7959 14.803L65.9901 17.1365C65.6223 18.1941 66.8835 19.2013 67.917 18.5802Z" fill="#017EB4"/>
</g>
<defs>
<clipPath id="clip0_2090_10418">
<rect width="83.9254" height="80.7139" fill="white" transform="translate(0.0371094 0.286133)"/>
</clipPath>
</defs>
</svg>
