<?xml version="1.0" encoding="utf-8"?>
<svg version="1.1" id="Layer_1" x="0px" y="0px" viewBox="0 0 63.8 63.8" style="enable-background:new 0 0 63.8 63.8;" xmlns="http://www.w3.org/2000/svg">
  <style type="text/css">
	.st0{fill:#354550;}
</style>
  <g id="Group_373" transform="translate(-1278.766 -3798.949)">
    <g id="Group_226" transform="translate(-4224.715 2710.323)">
      <g id="Group_224" transform="translate(5538.691 1120.233)">
        <path id="Path_275" d="M1.4,6.9h-9.3c-0.3,0-0.5-0.2-0.5-0.5v0c0-1.2-0.5-2.4-1.4-3.3c-3.6-3.6-3.5-9.4,0.1-13 c3.6-3.6,9.4-3.5,13,0.1C6.8-6.1,6.7-0.3,3.2,3.2c-0.8,0.9-1.3,2-1.3,3.2v0C1.8,6.7,1.6,6.9,1.4,6.9z M-7.5,6h8.4 C1,4.7,1.6,3.5,2.5,2.5c3.2-3.2,3.2-8.4,0-11.6c-1.7-1.7-4-2.6-6.4-2.4c-4.5,0.3-7.9,4.3-7.6,8.8c0.1,1.9,1,3.8,2.3,5.2 C-8.2,3.4-7.6,4.6-7.5,6L-7.5,6z"/>
        <path id="Path_276" d="M-9.3-3.4L-9.3-3.4c-0.3,0-0.5-0.3-0.5-0.5c0.3-3.2,2.8-5.7,6.1-6c0.2,0,0.3,0,0.5,0 c1.6,0,3.1,0.6,4.3,1.6c0.2,0.2,0.2,0.5,0,0.7c-0.2,0.2-0.5,0.2-0.7,0c-1-0.9-2.3-1.4-3.7-1.4c-0.1,0-0.3,0-0.4,0 c-2.7,0.2-4.9,2.4-5.2,5.1C-8.9-3.6-9.1-3.4-9.3-3.4z"/>
        <path id="Path_277" d="M1.4,8.8H-8c-0.3,0-0.5-0.2-0.5-0.5S-8.3,7.8-8,7.8l0,0h9.4c0.3,0,0.5,0.2,0.5,0.5S1.7,8.8,1.4,8.8z"/>
        <path id="Path_278" d="M0.7,15.1h-8c-0.7,0-1.2-0.5-1.2-1.2v-3.8c0-0.3,0.2-0.5,0.5-0.5h9.4c0.3,0,0.5,0.2,0.5,0.5V14 C1.9,14.6,1.4,15.1,0.7,15.1z M-7.5,10.6V14c0,0.1,0.1,0.2,0.2,0.2l0,0h8c0.1,0,0.2-0.1,0.2-0.2v-3.3H-7.5z"/>
        <path id="Path_279" d="M-3.3,17.1c-1,0-1.9-0.8-1.9-1.9v-0.5c0-0.3,0.2-0.5,0.5-0.5s0.5,0.2,0.5,0.5l0,0v0.5 c0,0.5,0.4,0.9,0.9,0.9c0.5,0,0.9-0.4,0.9-0.9v-0.5c0-0.3,0.2-0.5,0.5-0.5s0.5,0.2,0.5,0.5l0,0v0.5C-1.4,16.3-2.3,17.1-3.3,17.1z "/>
      </g>
      <g id="Group_225" transform="translate(5536.439 1116.208)">
        <path id="Path_280" d="M-1-9.5c-0.3,0-0.5-0.2-0.5-0.5v-2c0-0.3,0.2-0.5,0.5-0.5s0.5,0.2,0.5,0.5l0,0v2C-0.6-9.7-0.8-9.5-1-9.5 C-1-9.5-1-9.5-1-9.5z"/>
        <path id="Path_281" d="M-4.7-8.8c-0.2,0-0.4-0.1-0.5-0.3L-5.8-11c-0.1-0.3,0-0.5,0.3-0.6s0.5,0,0.6,0.3l0.7,1.9 c0.1,0.3,0,0.5-0.3,0.6C-4.6-8.8-4.6-8.8-4.7-8.8z"/>
        <path id="Path_282" d="M-7.9-6.8C-8-6.8-8.2-6.9-8.3-7l-1.3-1.5C-9.7-8.7-9.7-9-9.5-9.2C-9.3-9.4-9-9.4-8.8-9.2l1.3,1.5 c0.2,0.2,0.1,0.5-0.1,0.7C-7.7-6.9-7.8-6.8-7.9-6.8L-7.9-6.8z"/>
        <path id="Path_283" d="M-10.2-3.9c-0.1,0-0.2,0-0.2-0.1l-1.7-1c-0.2-0.1-0.3-0.4-0.2-0.7c0.1-0.2,0.4-0.3,0.7-0.2l1.7,1 c0.2,0.1,0.3,0.4,0.2,0.7C-9.9-4-10.1-3.9-10.2-3.9L-10.2-3.9z"/>
        <path id="Path_284" d="M2.6-8.8C2.4-8.8,2.1-9,2.1-9.3c0-0.1,0-0.1,0-0.2l0.7-1.9c0.1-0.3,0.4-0.4,0.6-0.3 c0.3,0.1,0.4,0.4,0.3,0.6L3.1-9.1C3-8.9,2.8-8.8,2.6-8.8z"/>
        <path id="Path_285" d="M5.8-6.8C5.6-6.8,5.3-7,5.3-7.3c0-0.1,0-0.2,0.1-0.3l1.3-1.5c0.2-0.2,0.5-0.2,0.7-0.1 C7.6-9,7.6-8.7,7.5-8.5L6.2-7C6.1-6.9,6-6.8,5.8-6.8z"/>
        <path id="Path_286" d="M8.2-3.9c-0.3,0-0.5-0.2-0.5-0.5c0-0.2,0.1-0.3,0.2-0.4l1.7-1c0.2-0.1,0.5-0.1,0.7,0.2 c0.1,0.2,0.1,0.5-0.2,0.7L8.4-4C8.3-3.9,8.3-3.9,8.2-3.9z"/>
      </g>
    </g>
    <path id="Path_295" class="st0" d="M1332.9,3853.1c-12.3,12.3-32.1,12.3-44.4,0c-5.9-5.9-9.2-13.9-9.2-22.2 c0-17.3,14-31.4,31.4-31.4c8.3,0,16.3,3.3,22.2,9.2c1.8,1.8,3.3,3.7,4.6,5.8c0.3,0.5,0.1,1.1-0.3,1.4c-0.5,0.3-1.1,0.1-1.4-0.3 c-1.2-2-2.7-3.8-4.3-5.4c-11.5-11.5-30.1-11.5-41.5,0c-5.5,5.5-8.6,13-8.6,20.8c0,16.2,13.2,29.4,29.4,29.3 c10.8,0,20.7-5.9,25.8-15.4c0.3-0.5,0.9-0.7,1.4-0.4c0.5,0.3,0.7,0.9,0.4,1.4l0,0C1336.9,3848.4,1335,3850.9,1332.9,3853.1z" style="fill: rgb(250, 6, 126);"/>
  </g>
</svg>