<?xml version="1.0" encoding="utf-8"?>
<svg version="1.1" id="Layer_1" x="0px" y="0px" viewBox="0 0 63.8 63.8" style="enable-background:new 0 0 63.8 63.8;" xmlns="http://www.w3.org/2000/svg">
  <style type="text/css">
	.st0{fill:#00AAE6;}
</style>
  <g id="Group_371" transform="translate(-473.539 -3798.948)">
    <g id="Group_222" transform="translate(-4232.505 3639.948)">
      <path id="Path_257" d="M4739.8,176.2c-0.3,0-0.5-0.2-0.5-0.5v-0.1c0-0.7-0.6-1.3-1.3-1.4c-0.7,0-1.3,0.6-1.4,1.3c0,0,0,0,0,0.1 v0.1c0,0.3-0.2,0.5-0.5,0.5c-0.3,0-0.5-0.2-0.5-0.5v-0.1c0-1.3,1-2.3,2.3-2.3c1.3,0,2.3,1,2.3,2.3v0.1 C4740.3,176,4740.1,176.2,4739.8,176.2C4739.8,176.2,4739.8,176.2,4739.8,176.2z"/>
      <path id="Path_258" d="M4741,181.2c-0.6,0-1.1-0.4-1.1-1l0-0.1c-0.1-1-1-1.7-2-1.6c-0.8,0.1-1.4,0.7-1.6,1.6l0,0.1 c-0.1,0.6-0.6,1-1.1,1h-0.3c-0.6,0-1.1-0.5-1.1-1.1v-3.8c0-0.5,0.4-1,1-1h6.4c0.5,0,1,0.4,1,1v3.8 C4742.2,180.7,4741.7,181.2,4741,181.2L4741,181.2z M4738.1,177.6c1.4,0,2.6,1,2.8,2.4l0,0.1c0,0.1,0.1,0.2,0.2,0.1 c0.1,0,0.2-0.1,0.2-0.2v-3.8c0,0,0,0,0,0h-6.4c0,0,0,0,0,0v3.8c0,0.1,0.1,0.2,0.2,0.2h0.3c0.1,0,0.2-0.1,0.2-0.1l0-0.1 C4735.5,178.7,4736.7,177.6,4738.1,177.6L4738.1,177.6z"/>
      <path id="Path_259" d="M4747.4,208.5h-18.9c-1.2,0-2.3-1-2.3-2.3v-27.2c0-1.2,1-2.3,2.3-2.3h5.8c0.3,0,0.5,0.2,0.5,0.5 c0,0.3-0.2,0.5-0.5,0.5h-5.8c-0.7,0-1.3,0.6-1.3,1.3v27.2c0,0.7,0.6,1.3,1.3,1.3h18.9c0.7,0,1.3-0.6,1.3-1.3v-27.2 c0-0.7-0.6-1.3-1.3-1.3h-5.8c-0.3,0-0.5-0.2-0.5-0.5c0-0.3,0.2-0.5,0.5-0.5c0,0,0,0,0,0h5.8c1.2,0,2.3,1,2.3,2.3v27.2 C4749.7,207.5,4748.7,208.5,4747.4,208.5z"/>
      <path id="Path_260" d="M4741.6,205.9h-12.2c-0.3,0-0.5-0.2-0.5-0.5v-25.5c0-0.3,0.2-0.5,0.5-0.5h3.6c0.3,0,0.5,0.2,0.5,0.5 c0,0.3-0.2,0.5-0.5,0.5h-3.1v24.5h11.8c0.3,0,0.6-0.3,0.6-0.6v-2.8c0-0.3,0.2-0.5,0.5-0.5c0,0,0,0,0,0h2.8c0.3,0,0.6-0.3,0.6-0.6 v-20h-3.1c-0.3,0-0.5-0.2-0.5-0.5c0-0.3,0.2-0.5,0.5-0.5h3.6c0.3,0,0.5,0.2,0.5,0.5c0,0,0,0,0,0v20.5c0,0.9-0.7,1.6-1.6,1.6h-2.3 v2.3C4743.2,205.2,4742.5,205.9,4741.6,205.9C4741.6,205.9,4741.6,205.9,4741.6,205.9z"/>
      <path id="Path_261" d="M4733.9,193.4c-0.1,0-0.3-0.1-0.3-0.1l-1-1c-0.2-0.2-0.2-0.5,0-0.7c0.2-0.2,0.5-0.2,0.7,0c0,0,0,0,0,0 l0.7,0.7l1.7-1.8c0.2-0.2,0.5-0.2,0.7-0.1s0.2,0.5,0.1,0.7c0,0,0,0-0.1,0.1l-2.1,2.2C4734.1,193.4,4734,193.4,4733.9,193.4 L4733.9,193.4z"/>
      <path id="Path_262" d="M4733,187.3c-0.3,0-0.5-0.2-0.5-0.5c0-0.1,0.1-0.3,0.1-0.3l2.5-2.5c0.2-0.2,0.5-0.2,0.7,0 c0.2,0.2,0.2,0.5,0,0.7l-2.5,2.5C4733.2,187.3,4733.1,187.3,4733,187.3z"/>
      <path id="Path_263" d="M4735.4,187.3c-0.1,0-0.3-0.1-0.3-0.1l-2.5-2.5c-0.2-0.2-0.2-0.5,0-0.7s0.5-0.2,0.7,0c0,0,0,0,0,0l2.5,2.5 c0.2,0.2,0.2,0.5,0,0.7C4735.7,187.3,4735.6,187.3,4735.4,187.3L4735.4,187.3z"/>
      <path id="Path_264" d="M4733,200.1c-0.3,0-0.5-0.2-0.5-0.5c0-0.1,0.1-0.3,0.1-0.3l2.5-2.5c0.2-0.2,0.5-0.2,0.7,0 c0.2,0.2,0.2,0.5,0,0.7l-2.5,2.5C4733.2,200.1,4733.1,200.1,4733,200.1z"/>
      <path id="Path_265" d="M4735.4,200.1c-0.1,0-0.3-0.1-0.3-0.1l-2.5-2.5c-0.2-0.2-0.2-0.5,0-0.7c0.2-0.2,0.5-0.2,0.7,0l2.5,2.5 c0.2,0.2,0.2,0.5,0,0.7C4735.7,200.1,4735.6,200.1,4735.4,200.1L4735.4,200.1z"/>
      <path id="Path_266" d="M4744.4,187.3h-7.2c-0.3,0-0.5-0.2-0.5-0.5c0-0.3,0.2-0.5,0.5-0.5h7.2c0.3,0,0.5,0.2,0.5,0.5 C4744.9,187.1,4744.7,187.3,4744.4,187.3C4744.4,187.3,4744.4,187.3,4744.4,187.3z"/>
      <path id="Path_267" d="M4744.4,193.6h-7.2c-0.3,0-0.5-0.2-0.5-0.5c0-0.2,0.2-0.4,0.5-0.5h7.2c0.3,0,0.5,0.2,0.5,0.5 C4744.9,193.4,4744.7,193.6,4744.4,193.6C4744.4,193.6,4744.4,193.6,4744.4,193.6z"/>
    </g>
    <path id="Path_292" class="st0" d="M483.3,3853.1c-12.3-12.3-12.3-32.1,0-44.4c5.9-5.9,13.9-9.2,22.2-9.2c17.3,0,31.4,14,31.4,31.4 c0,8.3-3.3,16.3-9.2,22.2c-1.8,1.8-3.7,3.3-5.8,4.6c-0.5,0.3-1.1,0.1-1.4-0.3c-0.3-0.5-0.1-1.1,0.3-1.4c2-1.2,3.8-2.7,5.4-4.3 c11.5-11.5,11.5-30.1,0-41.5c-5.5-5.5-13-8.6-20.8-8.6c-16.2,0-29.4,13.2-29.3,29.4c0,10.8,5.9,20.7,15.4,25.8 c0.5,0.3,0.7,0.9,0.4,1.4c-0.3,0.5-0.9,0.7-1.4,0.4l0,0C487.9,3857.1,485.4,3855.2,483.3,3853.1z" style="fill: rgb(53, 69, 80);"/>
  </g>
</svg>