<?xml version="1.0" encoding="utf-8"?>
<!-- Generator: Adobe Illustrator 25.3.1, SVG Export Plug-In . SVG Version: 6.00 Build 0)  -->
<svg version="1.1" id="Layer_1" xmlns="http://www.w3.org/2000/svg" xmlns:xlink="http://www.w3.org/1999/xlink" x="0px" y="0px"
	 viewBox="0 0 63.8 63.8" style="enable-background:new 0 0 63.8 63.8;" xml:space="preserve">
<style type="text/css">
	.st0{fill:#008D7E;}
</style>
<g id="Group_369" transform="translate(-1278.793 -3438.154)">
	<g id="Group_218" transform="translate(-4090.084 3236.71)">
		<g id="Group_216" transform="translate(5401.185 243.289)">
			<path id="Path_235" d="M-12-3.2c-0.2,0-0.4-0.2-0.4-0.4v-2c0-1.3,1.1-2.4,2.4-2.4h7.6c0.8,0,1.5-0.7,1.5-1.5V-12
				c0-0.2,0.2-0.5,0.4-0.5S0-12.3,0.1-12c0,0,0,0,0,0v2.3c0,1.3-1.1,2.4-2.4,2.4H-10c-0.8,0-1.5,0.7-1.5,1.5v2
				C-11.5-3.4-11.7-3.2-12-3.2C-12-3.2-12-3.2-12-3.2z"/>
			<path id="Path_236" d="M11.2-3.2c-0.2,0-0.4-0.2-0.4-0.4c0,0,0,0,0,0v-2c0-0.8-0.7-1.5-1.5-1.5H1.6c-1.3,0-2.4-1.1-2.4-2.4V-12
				c0-0.2,0.2-0.4,0.4-0.4c0.2,0,0.4,0.2,0.4,0.4v2.3c0,0.8,0.7,1.5,1.5,1.5h7.6c1.3,0,2.4,1.1,2.4,2.4v2
				C11.7-3.4,11.5-3.2,11.2-3.2C11.2-3.2,11.2-3.2,11.2-3.2z"/>
			<path id="Path_237" d="M4.9-3.2c-0.2,0-0.4-0.2-0.4-0.4c0,0,0,0,0,0V-6c0-0.7-0.6-1.3-1.3-1.3c-0.2,0-0.5-0.2-0.5-0.4
				c0-0.2,0.2-0.5,0.4-0.5c0,0,0,0,0,0c1.2,0,2.2,1,2.2,2.2v2.3C5.4-3.4,5.2-3.2,4.9-3.2z"/>
			<path id="Path_238" d="M-5.7-3.2c-0.2,0-0.4-0.2-0.4-0.4V-6c0-1.2,1-2.2,2.2-2.2c0.2,0,0.4,0.2,0.4,0.5c0,0.2-0.2,0.4-0.4,0.4
				c-0.7,0-1.3,0.6-1.3,1.3v2.3C-5.2-3.4-5.4-3.2-5.7-3.2C-5.7-3.2-5.7-3.2-5.7-3.2z"/>
		</g>
		<path id="Path_239" d="M5407.9,245.8h-3.7c-0.3,0-0.6-0.3-0.6-0.6v-3.7c0-0.3,0.3-0.6,0.6-0.6h3.7c0.3,0,0.6,0.3,0.6,0.6v3.7
			C5408.5,245.5,5408.3,245.8,5407.9,245.8z M5404.6,244.9h3.1v-3.1h-3.1V244.9z M5407.9,241.8L5407.9,241.8z"/>
		<path id="Path_240" d="M5414.2,245.8h-3.7c-0.3,0-0.6-0.3-0.6-0.6v-3.7c0-0.3,0.3-0.6,0.6-0.6h3.7c0.3,0,0.6,0.3,0.6,0.6v3.7
			C5414.8,245.5,5414.6,245.8,5414.2,245.8z M5410.9,244.9h3.1v-3.1h-3.1V244.9z M5414.2,241.8L5414.2,241.8z"/>
		<path id="Path_241" d="M5391,245.8h-3.7c-0.3,0-0.6-0.3-0.6-0.6v-3.7c0-0.3,0.3-0.6,0.6-0.6h3.7c0.3,0,0.6,0.3,0.6,0.6v3.7
			C5391.6,245.5,5391.4,245.8,5391,245.8C5391,245.8,5391,245.8,5391,245.8z M5387.7,244.9h3.1v-3.1h-3.1V244.9z M5391,241.8
			L5391,241.8z"/>
		<path id="Path_242" d="M5397.3,245.8h-3.7c-0.3,0-0.6-0.3-0.6-0.6v-3.7c0-0.3,0.3-0.6,0.6-0.6h3.7c0.3,0,0.6,0.3,0.6,0.6v3.7
			C5397.9,245.5,5397.7,245.8,5397.3,245.8z M5394,244.9h3.1v-3.1h-3.1L5394,244.9z M5397.3,241.8L5397.3,241.8z"/>
		<g id="Group_217" transform="translate(5401.898 227.589)">
			<path id="Path_243" d="M4.7,2.5H-8.1c-2.4,0-4.3-1.9-4.3-4.3c0-1.7,1-3.2,2.6-3.9c0.2-1.4,1.4-2.5,2.8-2.5c0.1,0,0.3,0,0.4,0
				c1.1-3.2,4.6-5,7.8-3.9c1.7,0.6,3.1,1.9,3.7,3.5c3.1,0.1,5.5,2.7,5.4,5.7C10.1,0.1,7.7,2.5,4.7,2.5L4.7,2.5z M-9.4-5
				c-1.8,0.7-2.6,2.7-1.9,4.4c0.5,1.3,1.8,2.2,3.2,2.2H4.7c2.6,0.1,4.7-2,4.7-4.6c0.1-2.6-2-4.7-4.6-4.7c-0.1,0-0.1,0-0.2,0H4.6
				c-0.2,0-0.3-0.1-0.4-0.2l0-0.1c0,0,0,0,0,0c-1-2.7-4-4.1-6.8-3.1c-1.6,0.6-2.8,1.9-3.3,3.5l0,0.1C-6-7.3-6.3-7.2-6.5-7.3l-0.1,0
				c-1-0.2-2.1,0.4-2.3,1.4C-9-5.8-9-5.6-9-5.5v0.1C-9-5.2-9.1-5.1-9.4-5L-9.4-5z M-9.4-5.5L-9.4-5.5z"/>
		</g>
	</g>
	<path id="Path_290" class="st0" d="M1289.3,3447.1c12.7-11.8,32.5-11.1,44.3,1.5c5.7,6.1,8.7,14.2,8.4,22.5
		c-0.6,17.3-15.1,30.9-32.4,30.3c-8.3-0.3-16.2-3.9-21.8-10c-1.7-1.8-3.2-3.8-4.4-6c-0.3-0.5-0.1-1.1,0.4-1.4
		c0.5-0.3,1.1-0.1,1.4,0.4c1.1,2,2.5,3.9,4.1,5.6c11.1,11.9,29.6,12.5,41.5,1.4c5.7-5.3,9-12.7,9.3-20.5
		c0.5-16.2-12.2-29.8-28.4-30.3c-10.8-0.4-20.9,5.2-26.3,14.5c-0.3,0.5-0.9,0.6-1.4,0.4c-0.5-0.3-0.6-0.9-0.4-1.4l0,0
		C1285.2,3451.6,1287.1,3449.2,1289.3,3447.1z"/>
</g>
</svg>
