<?xml version="1.0" encoding="utf-8"?>
<!-- Generator: Adobe Illustrator 25.3.1, SVG Export Plug-In . SVG Version: 6.00 Build 0)  -->
<svg version="1.1" id="Layer_1" xmlns="http://www.w3.org/2000/svg" xmlns:xlink="http://www.w3.org/1999/xlink" x="0px" y="0px"
	 viewBox="0 0 63.8 63.8" style="enable-background:new 0 0 63.8 63.8;" xml:space="preserve">
<style type="text/css">
	.st0{fill:#43D1F9;}
</style>
<g transform="translate(-4601.84 -1898.866)">
	<path d="M4631.9,1934.9c-1.8,0-3.5-0.8-4.5-2.3c-0.2-0.2-0.1-0.5,0.1-0.7c0.2-0.2,0.5-0.1,0.7,0.1c0,0,0,0,0,0
		c1.6,2.1,4.5,2.5,6.6,0.9c2.1-1.6,2.5-4.5,0.9-6.6c-0.9-1.2-2.3-1.9-3.7-1.9c-0.3,0-0.5-0.2-0.5-0.5s0.2-0.5,0.5-0.5
		c3.2,0,5.7,2.6,5.7,5.7C4637.6,1932.4,4635,1934.9,4631.9,1934.9L4631.9,1934.9z"/>
	<path d="M4623.8,1932.6c-0.2,0-0.4-0.1-0.5-0.3c-1.7-4.7,0.8-9.9,5.5-11.6c0.2-0.1,0.4-0.1,0.6-0.2c0.3-0.1,0.5,0.1,0.6,0.3
		c0.1,0.3-0.1,0.5-0.3,0.6c-4.3,1.2-6.8,5.6-5.6,9.9c0.1,0.2,0.1,0.4,0.2,0.5c0.1,0.3,0,0.5-0.3,0.6
		C4624,1932.6,4623.9,1932.6,4623.8,1932.6L4623.8,1932.6z"/>
	<path d="M4631.9,1930.1c-0.5,0-0.9-0.4-0.9-0.9c0-0.5,0.4-0.9,0.9-0.9s0.9,0.4,0.9,0.9v0
		C4632.8,1929.7,4632.4,1930.1,4631.9,1930.1z M4631.9,1929.1c-0.1,0-0.1,0-0.1,0.1c0,0.1,0,0.1,0.1,0.1s0.1,0,0.1-0.1
		C4632,1929.2,4631.9,1929.1,4631.9,1929.1C4631.9,1929.1,4631.9,1929.1,4631.9,1929.1L4631.9,1929.1z"/>
	<path d="M4624.1,1935.6c-0.3,0-0.5-0.2-0.5-0.5c0-0.2,0.1-0.3,0.2-0.4l7.5-5.7v-9.6c0-0.3,0.2-0.5,0.5-0.5s0.5,0.2,0.5,0.5v9.8
		c0,0.2-0.1,0.3-0.2,0.4l-7.7,5.9C4624.4,1935.5,4624.3,1935.6,4624.1,1935.6z"/>
	<path d="M4631.9,1944.9c-8.7,0-15.7-7-15.7-15.7s7-15.7,15.7-15.7c8.7,0,15.7,7,15.7,15.7c0,0,0,0,0,0c0,1.2-0.1,2.5-0.4,3.7
		c-0.1,0.3-0.3,0.4-0.6,0.4c-0.3-0.1-0.4-0.3-0.4-0.6c0.3-1.1,0.4-2.3,0.4-3.4c0-8.1-6.6-14.6-14.7-14.6s-14.6,6.6-14.6,14.7
		c0,8.1,6.6,14.6,14.7,14.6c1.4,0,2.8-0.2,4.2-0.6c0.3-0.1,0.5,0.1,0.6,0.3s-0.1,0.5-0.3,0.6
		C4634.9,1944.7,4633.4,1944.9,4631.9,1944.9L4631.9,1944.9z"/>
	<path d="M4618.8,1929.7h-2.1c-0.3,0-0.5-0.2-0.5-0.5s0.2-0.5,0.5-0.5h2.1c0.3,0,0.5,0.2,0.5,0.5S4619,1929.7,4618.8,1929.7z"/>
	<path d="M4647.1,1929.7h-2.1c-0.3,0-0.5-0.2-0.5-0.5s0.2-0.5,0.5-0.5h2.1c0.3,0,0.5,0.2,0.5,0.5S4647.3,1929.7,4647.1,1929.7z"/>
	<path d="M4631.9,1916.6c-0.3,0-0.5-0.2-0.5-0.5v-2.1c0-0.3,0.2-0.5,0.5-0.5s0.5,0.2,0.5,0.5v2.1
		C4632.4,1916.4,4632.2,1916.6,4631.9,1916.6z"/>
	<path d="M4631.9,1944.9c-0.3,0-0.5-0.2-0.5-0.5v-2.1c0-0.3,0.2-0.5,0.5-0.5s0.5,0.2,0.5,0.5v2.1
		C4632.4,1944.7,4632.2,1944.9,4631.9,1944.9z"/>
	<path d="M4640.4,1942.2h-2.5v-1.6c0-0.7,0.6-1.2,1.2-1.2c0.2,0,0.4-0.2,0.4-0.4c0,0,0,0,0,0v-0.4c0-0.2-0.2-0.4-0.4-0.4
		c-0.2,0-0.4,0.2-0.4,0.4c0,0,0,0,0,0h-0.8c0-0.7,0.6-1.2,1.2-1.2s1.2,0.6,1.2,1.2v0.4c0,0.7-0.6,1.2-1.2,1.2
		c-0.2,0-0.4,0.2-0.4,0.4c0,0,0,0,0,0v0.6c0,0.1,0.1,0.2,0.2,0.2c0,0,0,0,0.1,0h1.4L4640.4,1942.2z"/>
	<path d="M4643.6,1942.2h-0.8v-1.6h-1.6v-0.8l1.2-2.5h1.2L4643.6,1942.2z M4642.8,1939.5v-1.4l-0.8,1.6h0.6
		C4642.7,1939.7,4642.8,1939.6,4642.8,1939.5C4642.8,1939.5,4642.8,1939.5,4642.8,1939.5L4642.8,1939.5z"/>
	<path d="M4648.1,1942.2h-0.8v-2.5c0-0.2-0.2-0.4-0.4-0.4c-0.2,0-0.4,0.2-0.4,0.4c0,0,0,0,0,0v2.5h-0.8v-4.9h0.8v1.3
		c0.1,0,0.3-0.1,0.4-0.1c0.7,0,1.2,0.6,1.2,1.2L4648.1,1942.2z"/>
	<path d="M4643,1948c-4.6,0-8.3-3.7-8.3-8.3s3.7-8.3,8.3-8.3c4.6,0,8.3,3.7,8.3,8.3c0,0,0,0,0,0
		C4651.3,1944.3,4647.6,1948,4643,1948z M4643,1932.4c-4.1,0-7.3,3.3-7.3,7.3s3.3,7.3,7.3,7.3c4.1,0,7.3-3.3,7.3-7.3l0,0
		C4650.3,1935.6,4647,1932.4,4643,1932.4L4643,1932.4z"/>
</g>
<path class="st0" d="M0.5,32.4C0.2,15.1,14,0.8,31.4,0.5c8.3-0.1,16.4,3,22.3,8.8c12.5,12,12.8,31.9,0.8,44.4
	c-5.8,6-13.7,9.4-22,9.6c-2.5,0-5-0.2-7.4-0.7c-0.5-0.1-0.9-0.7-0.8-1.2c0.1-0.5,0.7-0.9,1.2-0.8c2.3,0.5,4.6,0.7,6.9,0.7
	C48.6,61,61.6,47.6,61.3,31.4c-0.1-7.8-3.4-15.2-9-20.6C40.6-0.5,22-0.1,10.8,11.5c-7.5,7.8-10.1,19-6.9,29.3
	c0.2,0.5-0.1,1.1-0.7,1.3C2.7,42.3,2.2,42,2,41.5C1.1,38.5,0.6,35.5,0.5,32.4z"/>
</svg>
