<svg xmlns="http://www.w3.org/2000/svg" width="32" height="32.009" viewBox="0 0 32 32.009"><g transform="translate(-7649.438 -4388.329)"><g transform="translate(7649.438 4388.329)"><path d="M7660.95,4406.772h0a2.305,2.305,0,0,1-.8-.133,4.468,4.468,0,0,1-.922-.605,3.782,3.782,0,0,1-.913-1.74,4.013,4.013,0,0,0-3.491-3.234,6.72,6.72,0,0,1-3.577-1.788,11.6,11.6,0,0,1-1.079-1.484,6.182,6.182,0,0,1,1.3-7.435,6.736,6.736,0,0,1,4.7-2.023,5.358,5.358,0,0,1,2.837.786,10.472,10.472,0,0,1,1.38,1.042,7.214,7.214,0,0,1,1.788,3.535c.671,2.706,1.987,3.125,3.26,3.53a3.6,3.6,0,0,1,1.785.968,4.005,4.005,0,0,1,.585.989c.381,1.347-.547,3.436-2.309,5.2A7.248,7.248,0,0,1,7660.95,4406.772Zm-.272-1.5a.9.9,0,0,0,.272.036,6,6,0,0,0,3.509-1.965c1.43-1.431,2.115-3.046,1.94-3.743a4.008,4.008,0,0,0-.308-.472,2.635,2.635,0,0,0-1.1-.51c-1.342-.427-3.369-1.073-4.237-4.573a5.834,5.834,0,0,0-1.387-2.837,9.239,9.239,0,0,0-1.133-.85,3.9,3.9,0,0,0-2.064-.564,5.263,5.263,0,0,0-3.662,1.594,4.787,4.787,0,0,0-1.073,5.655,10.5,10.5,0,0,0,.891,1.232,5.343,5.343,0,0,0,2.823,1.355,5.452,5.452,0,0,1,4.565,4.21,2.9,2.9,0,0,0,.506,1.11A4.543,4.543,0,0,0,7660.677,4405.271Z" transform="translate(-7649.437 -4388.329)"/></g><g transform="translate(7653.094 4392.002)"><path d="M7667.464,4424.807a4.029,4.029,0,0,1-2.952-1.066c-2.146-2.146-1.078-6.749,2.722-11.727a.732.732,0,1,1,1.164.889c-3.174,4.158-4.373,8.28-2.851,9.8,1.767,1.766,7.315,0,12.762-5.449s7.214-11,5.449-12.762c-1.477-1.477-5.49-.361-9.542,2.654a.732.732,0,1,1-.875-1.174c4.864-3.621,9.359-4.608,11.452-2.516,2.631,2.632.237,9.147-5.449,14.833C7675.222,4422.415,7670.663,4424.807,7667.464,4424.807Z" transform="translate(-7663.419 -4402.374)"/></g><g transform="translate(7659.903 4398.904)"><path d="M7699.038,4450.2a9.92,9.92,0,0,1-7.089-2.858,9.746,9.746,0,0,1-2.468-4.214.732.732,0,1,1,1.408-.4,8.167,8.167,0,0,0,2.1,3.58c3.5,3.5,9.513,3.184,13.4-.707s4.206-9.9.706-13.4a8.157,8.157,0,0,0-3.275-2,.732.732,0,1,1,.453-1.393,9.614,9.614,0,0,1,3.858,2.359c4.071,4.072,3.754,11.013-.706,15.474A11.935,11.935,0,0,1,7699.038,4450.2Z" transform="translate(-7689.453 -4428.763)"/></g><g transform="translate(7662.445 4401.306)"><path d="M7706.617,4454.155a7.723,7.723,0,0,1-5.5-2.238,7.641,7.641,0,0,1-1.908-3.2.732.732,0,0,1,1.4-.42,6.085,6.085,0,0,0,1.54,2.586,7.034,7.034,0,0,0,9.921-9.921,6.168,6.168,0,0,0-2.708-1.575.732.732,0,0,1,.392-1.411,7.633,7.633,0,0,1,3.352,1.951,8.255,8.255,0,0,1-.347,11.646A8.709,8.709,0,0,1,7706.617,4454.155Z" transform="translate(-7699.174 -4437.947)"/></g></g></svg>