<?xml version="1.0" encoding="utf-8"?>
<!-- Generator: Adobe Illustrator 26.2.1, SVG Export Plug-In . SVG Version: 6.00 Build 0)  -->
<svg version="1.1" id="Layer_1" xmlns="http://www.w3.org/2000/svg" xmlns:xlink="http://www.w3.org/1999/xlink" x="0px" y="0px"
	 viewBox="0 0 63.8 63.8" style="enable-background:new 0 0 63.8 63.8;" xml:space="preserve">
<style type="text/css">
	.st0{fill:#00AAE6;}
	.st1{fill:#FFFFFF;}
	.st2{clip-path:url(#SVGID_00000060007428131057512900000003886860466775017135_);}
</style>
<path id="Path_509" class="st0" d="M34.1,63.2C16.8,64.5,1.8,51.4,0.6,34.1C0,25.8,2.7,17.6,8.2,11.3C19.6-1.7,39.4-3.1,52.5,8.2
	c6.3,5.5,10.1,13.2,10.7,21.5c0.2,2.5,0.1,5-0.4,7.4c-0.1,0.5-0.6,0.9-1.2,0.8c-0.5-0.1-0.9-0.6-0.8-1.2c0.4-2.3,0.5-4.6,0.3-6.9
	C60.1,13.7,46,1.5,29.8,2.6c-7.8,0.5-15,4.2-20.1,10c-10.6,12.3-9.3,30.8,3,41.5c8.2,7.1,19.5,9.1,29.6,5.3c0.5-0.2,1.1,0.1,1.3,0.6
	c0.2,0.5-0.1,1.1-0.6,1.3l0,0C40.1,62.4,37.1,63,34.1,63.2z"/>
<g id="Group_384" transform="translate(16.993 16.595)">
	<path id="Path_546" class="st1" d="M28.2,24.8l-13,5.9l-13-5.9V11.1l13-5.9l13,5.9V24.8z"/>
	<g id="Group_386" transform="translate(0 0)">
		<g>
			<defs>
				<rect id="SVGID_1_" x="-1.6" y="-1.6" width="33.7" height="32.8"/>
			</defs>
			<clipPath id="SVGID_00000019671530495876471860000015918943589245541803_">
				<use xlink:href="#SVGID_1_"  style="overflow:visible;"/>
			</clipPath>
			
				<g id="Group_385" transform="translate(0 0)" style="clip-path:url(#SVGID_00000019671530495876471860000015918943589245541803_);">
				<path id="Path_547" d="M15.2,31.2c-0.1,0-0.1,0-0.2,0L2,25.2c-0.2-0.1-0.3-0.2-0.3-0.4V11.1c0-0.2,0.1-0.3,0.3-0.4l13-5.9
					c0.1-0.1,0.3-0.1,0.4,0l13,5.9c0.2,0.1,0.3,0.2,0.3,0.4v13.7c0,0.2-0.1,0.3-0.3,0.4l-13,5.9C15.3,31.2,15.3,31.2,15.2,31.2
					 M2.7,24.5l12.5,5.7l12.5-5.7V11.4L15.2,5.7L2.7,11.4V24.5z"/>
				<path id="Path_548" class="st1" d="M15.2,17.1l-13-5.9l13-5.9l13,5.9L15.2,17.1z"/>
				<path id="Path_549" d="M15.2,17.5c-0.1,0-0.1,0-0.2,0L2,11.6c-0.2-0.1-0.3-0.4-0.2-0.6c0-0.1,0.1-0.2,0.2-0.2l13-5.9
					c0.1-0.1,0.3-0.1,0.4,0l13,5.9c0.2,0.1,0.3,0.4,0.2,0.6c0,0.1-0.1,0.2-0.2,0.2l-13,5.9C15.3,17.5,15.3,17.5,15.2,17.5 M3.3,11.1
					l11.9,5.4l11.9-5.4L15.2,5.7L3.3,11.1z"/>
				<path id="Path_550" class="st1" d="M15.2,17.1L15.2,17.1z"/>
				<path id="Path_551" d="M15.2,31.2c-0.3,0-0.5-0.2-0.5-0.5l0,0V17.1c0-0.3,0.2-0.5,0.5-0.5s0.5,0.2,0.5,0.5v13.7
					C15.7,31,15.5,31.2,15.2,31.2L15.2,31.2"/>
				<path id="Path_552" class="st1" d="M28.2,11.1l3.4,4.7l-13,5.9l-3.4-4.7L28.2,11.1z"/>
				<path id="Path_553" d="M18.6,22.3c-0.1,0-0.3-0.1-0.4-0.2l-3.4-4.7c-0.1-0.2-0.1-0.5,0.1-0.6c0,0,0,0,0.1,0l13-5.9
					c0.2-0.1,0.4,0,0.6,0.1l3.4,4.7c0.1,0.2,0.1,0.5-0.1,0.6c0,0,0,0-0.1,0l-13,5.9C18.7,22.3,18.7,22.3,18.6,22.3 M15.9,17.3l2.9,4
					l12.1-5.5l-2.9-4L15.9,17.3z"/>
				<path id="Path_554" class="st1" d="M18.6,21.8l-3.4-4.7L18.6,21.8z"/>
				<path id="Path_555" d="M18.6,22.3c-0.1,0-0.3-0.1-0.4-0.2l-3.4-4.7c-0.1-0.2-0.1-0.5,0.1-0.6s0.5-0.1,0.6,0.1l0,0l3.4,4.7
					c0.1,0.2,0.1,0.5-0.1,0.6C18.8,22.2,18.7,22.3,18.6,22.3"/>
				<path id="Path_556" class="st1" d="M2.2,11.1l-3.4,4.7l13,5.9l3.4-4.7L2.2,11.1z"/>
				<path id="Path_557" d="M11.8,22.3c-0.1,0-0.1,0-0.2,0l-13-5.9c-0.2-0.1-0.3-0.4-0.2-0.6c0,0,0-0.1,0-0.1l3.4-4.7
					c0.1-0.2,0.4-0.2,0.6-0.1l13,5.9c0.2,0.1,0.3,0.4,0.2,0.6c0,0,0,0.1,0,0.1l-3.4,4.7C12.1,22.2,12,22.3,11.8,22.3 M-0.5,15.7
					l12.1,5.5l2.9-4L2.4,11.7L-0.5,15.7z"/>
				<path id="Path_558" class="st1" d="M15.2,17.1l-3.4,4.7L15.2,17.1z"/>
				<path id="Path_559" d="M11.8,22.3c-0.3,0-0.5-0.2-0.5-0.5c0-0.1,0-0.2,0.1-0.3l3.4-4.7c0.1-0.2,0.4-0.3,0.6-0.1s0.3,0.4,0.1,0.6
					l0,0l-3.4,4.7C12.1,22.2,12,22.3,11.8,22.3"/>
				<path id="Path_560" class="st1" d="M22.9,7.6c0,1.3-1.1,2.4-2.4,2.4c-1.3,0-2.4-1.1-2.4-2.4s1.1-2.4,2.4-2.4l0,0
					C21.8,5.2,22.9,6.3,22.9,7.6"/>
				<path id="Path_561" d="M20.5,10.5c-1.6,0-2.8-1.3-2.8-2.8s1.3-2.8,2.8-2.8c1.6,0,2.8,1.3,2.8,2.8l0,0
					C23.3,9.2,22,10.5,20.5,10.5 M20.5,5.7c-1.1,0-1.9,0.9-1.9,1.9s0.9,1.9,1.9,1.9s1.9-0.9,1.9-1.9C22.4,6.6,21.5,5.7,20.5,5.7"/>
				<path id="Path_562" class="st1" d="M17.5,0.7c0,1-0.8,1.8-1.8,1.8s-1.8-0.8-1.8-1.8c0-1,0.8-1.8,1.8-1.8
					C16.7-1.1,17.5-0.3,17.5,0.7C17.5,0.7,17.5,0.7,17.5,0.7"/>
				<path id="Path_563" d="M15.7,3c-1.3,0-2.3-1-2.3-2.3s1-2.3,2.3-2.3c1.3,0,2.3,1,2.3,2.3c0,0,0,0,0,0C18,2,17,3,15.7,3 M15.7-0.7
					c-0.8,0-1.4,0.6-1.4,1.4c0,0.8,0.6,1.4,1.4,1.4c0.8,0,1.4-0.6,1.4-1.4c0,0,0,0,0,0C17.1,0,16.4-0.7,15.7-0.7"/>
				<path id="Path_564" class="st1" d="M13.8,7.9c0,1.9-1.5,3.4-3.4,3.4C8.6,11.3,7,9.8,7,7.9c0-1.9,1.5-3.4,3.4-3.4l0,0
					C12.3,4.5,13.8,6.1,13.8,7.9"/>
				<path id="Path_565" d="M10.4,11.8c-2.1,0-3.9-1.7-3.9-3.9s1.7-3.9,3.9-3.9s3.9,1.7,3.9,3.9l0,0C14.3,10.1,12.6,11.8,10.4,11.8
					 M10.4,5C8.8,5,7.5,6.3,7.5,7.9s1.3,2.9,2.9,2.9c1.6,0,2.9-1.3,2.9-2.9c0,0,0,0,0,0C13.4,6.3,12.1,5,10.4,5"/>
			</g>
		</g>
	</g>
</g>
</svg>
