<svg width="74" height="82" viewBox="0 0 74 82" fill="none" xmlns="http://www.w3.org/2000/svg">
<g clip-path="url(#clip0_2090_10393)">
<path d="M67.4404 73.6346H32.7185C30.1222 73.6346 28.0264 71.5388 28.0264 68.9425V19.3934C28.0264 17.5635 46.8262 2.06373 46.8262 2.06373C48.4216 0.921978 50.5643 0.890697 52.1909 2.00117C52.1909 2.00117 72.1326 17.6104 72.1326 19.4716V68.9581C72.1326 71.5545 70.0367 73.6503 67.4404 73.6503V73.6346Z" stroke="black" stroke-width="2.71571" stroke-linecap="round" stroke-linejoin="round"/>
<path d="M49.5641 24.1488C53.2007 24.1488 56.1488 21.2007 56.1488 17.5641C56.1488 13.9275 53.2007 10.9795 49.5641 10.9795C45.9275 10.9795 42.9795 13.9275 42.9795 17.5641C42.9795 21.2007 45.9275 24.1488 49.5641 24.1488Z" stroke="black" stroke-width="2.71571" stroke-linecap="round" stroke-linejoin="round"/>
<path d="M60.2157 4.04985C60.8414 3.75268 61.467 3.50243 62.077 3.2991C65.9245 1.96966 69.3654 2.23555 70.82 4.31574C72.9158 7.31871 70.0223 12.9493 64.3605 16.9063C58.6986 20.8634 52.4111 21.6298 50.3153 18.6424C49.4707 17.4381 49.4394 15.7959 50.0651 14.0128" stroke="black" stroke-width="2.71571" stroke-linecap="round" stroke-linejoin="round"/>
<path d="M42.2135 79.579C41.1969 80.2202 39.93 80.4705 38.6788 80.1733L4.83275 72.4156C2.29899 71.8369 0.734941 69.3188 1.31364 66.8007L12.3558 18.5028C12.7625 16.7198 34.5653 5.80273 34.5653 5.80273" stroke="#017EB4" stroke-width="2.71571" stroke-linecap="round" stroke-linejoin="round"/>
</g>
<defs>
<clipPath id="clip0_2090_10393">
<rect width="73.307" height="81.4713" fill="white"/>
</clipPath>
</defs>
</svg>
