<?xml version="1.0" encoding="utf-8"?>
<!-- Generator: Adobe Illustrator 25.3.1, SVG Export Plug-In . SVG Version: 6.00 Build 0)  -->
<svg version="1.1" id="Layer_1" xmlns="http://www.w3.org/2000/svg" xmlns:xlink="http://www.w3.org/1999/xlink" x="0px" y="0px"
	 viewBox="0 0 63.8 63.8" style="enable-background:new 0 0 63.8 63.8;" xml:space="preserve">
<style type="text/css">
	.st0{fill:#E49902;}
</style>
<g id="Group_368" transform="translate(-893.271 -3447.062)">
	<g id="_7" transform="translate(-2805.082 1607.344)">
		<g id="Group_209" transform="translate(3719.902 1861.843)">
			<g id="Group_200" transform="translate(0 0)">
				<g id="Group_199">
					<path id="Path_230" d="M22.6,22.2H-1.8c-0.9,0-1.7-0.8-1.7-1.7V-1.8c0-0.9,0.8-1.7,1.7-1.7h24.4c0.9,0,1.7,0.8,1.7,1.7v22.4
						C24.3,21.5,23.5,22.2,22.6,22.2z M-1.8-2.6c-0.5,0-0.8,0.4-0.8,0.8v22.4c0,0.5,0.4,0.8,0.8,0.8h24.4c0.5,0,0.8-0.4,0.8-0.8
						V-1.8c0-0.5-0.4-0.8-0.8-0.8L-1.8-2.6z"/>
				</g>
			</g>
			<g id="Group_202" transform="translate(0 4.107)">
				<g id="Group_201">
					<path id="Path_231" d="M23.8-2.6H-3.1c-0.2,0-0.4-0.2-0.4-0.4c0-0.2,0.2-0.4,0.4-0.4c0,0,0,0,0,0h26.9c0.2,0,0.4,0.2,0.4,0.4
						C24.3-2.8,24.1-2.6,23.8-2.6z"/>
				</g>
			</g>
			<g id="Group_204" transform="translate(2.585 1.821)">
				<g id="Group_203">
					<circle id="Ellipse_19" cx="-2.8" cy="-2.8" r="0.7"/>
				</g>
			</g>
			<g id="Group_206" transform="translate(4.818 1.821)">
				<g id="Group_205">
					<circle id="Ellipse_20" cx="-2.8" cy="-2.8" r="0.7"/>
				</g>
			</g>
			<g id="Group_208" transform="translate(6.761 1.532)">
				<g id="Group_207" transform="translate(0 0)">
					<circle id="Ellipse_21" cx="-2.5" cy="-2.5" r="0.7"/>
				</g>
			</g>
		</g>
		<g id="Group_211" transform="translate(3725.892 1873.881)">
			<g id="Group_210" transform="translate(0 0)">
				<path id="Path_232" d="M0.2,2.5c-0.1,0-0.2,0-0.3-0.1l-3.3-2.6c-0.2-0.1-0.2-0.4-0.1-0.6c0,0,0-0.1,0.1-0.1l3.3-2.6
					c0.2-0.1,0.5-0.1,0.6,0.1s0.1,0.5-0.1,0.6l-2.8,2.2l2.8,2.2c0.2,0.1,0.2,0.4,0.1,0.6C0.5,2.4,0.3,2.5,0.2,2.5z"/>
			</g>
		</g>
		<g id="Group_213" transform="translate(3737.542 1873.881)">
			<g id="Group_212" transform="translate(0 0)">
				<path id="Path_233" d="M-3.1,2.5c-0.2,0-0.4-0.2-0.4-0.4c0-0.1,0.1-0.3,0.2-0.3l2.8-2.2l-2.8-2.2c-0.2-0.1-0.2-0.4-0.1-0.6
					C-3.3-3.5-3-3.6-2.8-3.4l3.3,2.6c0.2,0.1,0.2,0.4,0.1,0.6c0,0,0,0.1-0.1,0.1l-3.3,2.6C-2.9,2.5-3,2.5-3.1,2.5z"/>
			</g>
		</g>
		<g id="Group_215" transform="translate(3732.361 1871.995)">
			<g id="Group_214" transform="translate(0 0)">
				<path id="Path_234" d="M-3.1,6.3c0,0-0.1,0-0.1,0C-3.4,6.2-3.6,6-3.5,5.7l2-8.9c0-0.2,0.3-0.4,0.5-0.3c0.2,0,0.4,0.3,0.3,0.5
					c0,0,0,0,0,0l-2,8.9C-2.7,6.1-2.9,6.3-3.1,6.3z"/>
			</g>
		</g>
	</g>
	<path id="Path_289" class="st0" d="M920.8,3447.9c17.2-2.4,33,9.5,35.4,26.7c1.2,8.2-1,16.6-6,23.3c-10.4,13.8-30.1,16.6-43.9,6.2
		c-6.6-5-11-12.5-12.2-20.7c-0.3-2.5-0.4-4.9-0.2-7.4c0.1-0.6,0.5-1,1.1-0.9c0.6,0.1,1,0.5,0.9,1.1c-0.2,2.3-0.2,4.6,0.2,6.9
		c2.3,16.1,17.1,27.3,33.2,25c7.7-1.1,14.7-5.2,19.4-11.4c9.8-13,7.1-31.4-5.8-41.1c-8.6-6.5-20.1-7.7-29.9-3.2
		c-0.5,0.2-1.1,0-1.3-0.5c-0.2-0.5,0-1.1,0.5-1.3l0,0C914.8,3449.2,917.8,3448.3,920.8,3447.9z"/>
</g>
</svg>
